<svg width="200" height="40" viewBox="0 0 200 40" fill="none" xmlns="http://www.w3.org/2000/svg">
<path d="M19.4053 3.44727C19.5808 2.90729 20.3087 2.87378 20.5527 3.34668L20.5947 3.44727L23.7617 13.1973C23.9793 13.8666 24.6037 14.3193 25.3076 14.3193H35.5586C36.1261 14.3193 36.3832 15.0005 36.0098 15.3789L35.9258 15.4502L27.6328 21.4756C27.099 21.8634 26.856 22.5323 27.0068 23.166L27.042 23.293L30.21 33.042C30.3854 33.5819 29.8172 34.0366 29.3418 33.7979L29.248 33.7402L20.9551 27.7148C20.4212 27.3271 19.7103 27.3033 19.1543 27.6426L19.0449 27.7148L10.752 33.7402C10.2927 34.0739 9.68453 33.6743 9.76465 33.1484L9.79004 33.042L12.958 23.293C13.162 22.6651 12.9647 21.9806 12.4697 21.5566L12.3672 21.4756L4.07422 15.4502C3.5844 15.0943 3.83595 14.3193 4.44141 14.3193H14.6924C15.3525 14.3193 15.9421 13.921 16.1924 13.3193L16.2383 13.1973L19.4053 3.44727Z" stroke="black" stroke-opacity="0.3"/>
<path d="M59.4053 3.44727C59.5808 2.90729 60.3087 2.87378 60.5527 3.34668L60.5947 3.44727L63.7617 13.1973C63.9793 13.8666 64.6037 14.3193 65.3076 14.3193H75.5586C76.1261 14.3193 76.3832 15.0005 76.0098 15.3789L75.9258 15.4502L67.6328 21.4756C67.099 21.8634 66.856 22.5323 67.0068 23.166L67.042 23.293L70.21 33.042C70.3854 33.5819 69.8172 34.0366 69.3418 33.7979L69.248 33.7402L60.9551 27.7148C60.4212 27.3271 59.7103 27.3033 59.1543 27.6426L59.0449 27.7148L50.752 33.7402C50.2927 34.0739 49.6845 33.6743 49.7646 33.1484L49.79 33.042L52.958 23.293C53.162 22.6651 52.9647 21.9806 52.4697 21.5566L52.3672 21.4756L44.0742 15.4502C43.5844 15.0943 43.836 14.3193 44.4414 14.3193H54.6924C55.3525 14.3193 55.9421 13.921 56.1924 13.3193L56.2383 13.1973L59.4053 3.44727Z" stroke="black" stroke-opacity="0.3"/>
<path d="M99.4053 3.44727C99.5808 2.90729 100.309 2.87378 100.553 3.34668L100.595 3.44727L103.762 13.1973C103.979 13.8666 104.604 14.3193 105.308 14.3193H115.559C116.126 14.3193 116.383 15.0005 116.01 15.3789L115.926 15.4502L107.633 21.4756C107.099 21.8634 106.856 22.5323 107.007 23.166L107.042 23.293L110.21 33.042C110.385 33.5819 109.817 34.0366 109.342 33.7979L109.248 33.7402L100.955 27.7148C100.421 27.3271 99.7103 27.3033 99.1543 27.6426L99.0449 27.7148L90.752 33.7402C90.2927 34.0739 89.6845 33.6743 89.7646 33.1484L89.79 33.042L92.958 23.293C93.162 22.6651 92.9647 21.9806 92.4697 21.5566L92.3672 21.4756L84.0742 15.4502C83.5844 15.0943 83.836 14.3193 84.4414 14.3193H94.6924C95.3525 14.3193 95.9421 13.921 96.1924 13.3193L96.2383 13.1973L99.4053 3.44727Z" stroke="black" stroke-opacity="0.3"/>
<path d="M139.405 3.44727C139.581 2.90729 140.309 2.87378 140.553 3.34668L140.595 3.44727L143.762 13.1973C143.979 13.8666 144.604 14.3193 145.308 14.3193H155.559C156.126 14.3193 156.383 15.0005 156.01 15.3789L155.926 15.4502L147.633 21.4756C147.099 21.8634 146.856 22.5323 147.007 23.166L147.042 23.293L150.21 33.042C150.385 33.5819 149.817 34.0366 149.342 33.7979L149.248 33.7402L140.955 27.7148C140.421 27.3271 139.71 27.3033 139.154 27.6426L139.045 27.7148L130.752 33.7402C130.293 34.0739 129.685 33.6743 129.765 33.1484L129.79 33.042L132.958 23.293C133.162 22.6651 132.965 21.9806 132.47 21.5566L132.367 21.4756L124.074 15.4502C123.584 15.0943 123.836 14.3193 124.441 14.3193H134.692C135.353 14.3193 135.942 13.921 136.192 13.3193L136.238 13.1973L139.405 3.44727Z" stroke="black" stroke-opacity="0.3"/>
<path d="M179.405 3.44727C179.581 2.90729 180.309 2.87378 180.553 3.34668L180.595 3.44727L183.762 13.1973C183.979 13.8666 184.604 14.3193 185.308 14.3193H195.559C196.126 14.3193 196.383 15.0005 196.01 15.3789L195.926 15.4502L187.633 21.4756C187.099 21.8634 186.856 22.5323 187.007 23.166L187.042 23.293L190.21 33.042C190.385 33.5819 189.817 34.0366 189.342 33.7979L189.248 33.7402L180.955 27.7148C180.421 27.3271 179.71 27.3033 179.154 27.6426L179.045 27.7148L170.752 33.7402C170.293 34.0739 169.685 33.6743 169.765 33.1484L169.79 33.042L172.958 23.293C173.162 22.6651 172.965 21.9806 172.47 21.5566L172.367 21.4756L164.074 15.4502C163.584 15.0943 163.836 14.3193 164.441 14.3193H174.692C175.353 14.3193 175.942 13.921 176.192 13.3193L176.238 13.1973L179.405 3.44727Z" stroke="black" stroke-opacity="0.3"/>
</svg>
