<svg width="22" height="22" viewBox="0 0 22 22" fill="none" xmlns="http://www.w3.org/2000/svg">
<path d="M8.77007 4.77068C9.69236 2.47141 10.1535 1.32178 10.9465 1.32178C11.7395 1.32178 12.2006 2.47141 13.1229 4.77069L13.1659 4.87775C13.6869 6.17673 13.9475 6.82621 14.4784 7.22098C15.0094 7.61575 15.7064 7.67817 17.1004 7.80302L17.3524 7.82558C19.6339 8.02991 20.7746 8.13207 21.0187 8.85783C21.2628 9.58359 20.4156 10.3543 18.7213 11.8958L18.1558 12.4103C17.2982 13.1906 16.8693 13.5807 16.6694 14.0921C16.6321 14.1875 16.6011 14.2852 16.5766 14.3847C16.4453 14.9177 16.5708 15.4837 16.822 16.6158L16.9002 16.9681C17.3618 19.0485 17.5925 20.0887 17.1896 20.5374C17.039 20.7051 16.8433 20.8258 16.6259 20.8851C16.0441 21.0438 15.2181 20.3708 13.5661 19.0246C12.4813 18.1407 11.939 17.6988 11.3162 17.5993C11.0713 17.5602 10.8217 17.5602 10.5768 17.5993C9.95404 17.6988 9.41166 18.1407 8.3269 19.0246C6.6749 20.3708 5.8489 21.0438 5.26711 20.8851C5.0497 20.8258 4.854 20.7051 4.70342 20.5374C4.30046 20.0887 4.53125 19.0485 4.99283 16.9681L5.07101 16.6158C5.32217 15.4837 5.44775 14.9177 5.31637 14.3847C5.29186 14.2852 5.26086 14.1875 5.22358 14.0921C5.0237 13.5807 4.59485 13.1906 3.73716 12.4103L3.17169 11.8958C1.47737 10.3543 0.630215 9.58359 0.874304 8.85783C1.11839 8.13207 2.25913 8.02991 4.54059 7.82558L4.79261 7.80302C6.18661 7.67817 6.88361 7.61575 7.41458 7.22098C7.94555 6.82621 8.20607 6.17673 8.72712 4.87775L8.77007 4.77068Z" fill="#ECBA0B" stroke="#ECBA0B" stroke-width="0.862829"/>
</svg>
