<svg width="19" height="18" viewBox="0 0 19 18" fill="none" xmlns="http://www.w3.org/2000/svg">
<path d="M8.43006 0.792933C8.76683 -0.243541 10.2332 -0.243543 10.5699 0.792932L11.9416 5.01444C12.0922 5.47797 12.5241 5.7918 13.0115 5.7918H17.4503C18.5401 5.7918 18.9932 7.18636 18.1115 7.82694L14.5205 10.436C14.1262 10.7224 13.9612 11.2302 14.1118 11.6938L15.4835 15.9153C15.8203 16.9517 14.634 17.8136 13.7523 17.1731L10.1613 14.564C9.76696 14.2775 9.23304 14.2775 8.83874 14.564L5.24771 17.1731C4.36604 17.8136 3.17974 16.9517 3.51652 15.9153L4.88817 11.6938C5.03877 11.2302 4.87378 10.7224 4.47949 10.436L0.888458 7.82694C0.00678062 7.18636 0.459903 5.7918 1.54972 5.7918H5.98847C6.47585 5.7918 6.9078 5.47797 7.05841 5.01444L8.43006 0.792933Z" fill="#FFDF5F"/>
</svg>
