<svg width="21" height="21" viewBox="0 0 21 21" fill="none" xmlns="http://www.w3.org/2000/svg">
<path d="M8.60405 4.19061C9.52635 1.89133 9.98749 0.741699 10.7805 0.741699C11.5735 0.741699 12.0346 1.89134 12.9569 4.19061L12.9999 4.29767C13.5209 5.59665 13.7814 6.24614 14.3124 6.6409C14.8434 7.03567 15.5404 7.09809 16.9344 7.22294L17.1864 7.24551C19.4679 7.44983 20.6086 7.55199 20.8527 8.27775C21.0968 9.00351 20.2496 9.77424 18.5553 11.3157L17.9898 11.8302C17.1321 12.6105 16.7033 13.0007 16.5034 13.512C16.4661 13.6074 16.4351 13.7051 16.4106 13.8046C16.2792 14.3377 16.4048 14.9037 16.656 16.0357L16.7342 16.388C17.1957 18.4684 17.4265 19.5087 17.0236 19.9573C16.873 20.125 16.6773 20.2457 16.4599 20.305C15.8781 20.4638 15.0521 19.7907 13.4001 18.4446C12.3153 17.5606 11.7729 17.1187 11.1502 17.0192C10.9053 16.9801 10.6557 16.9801 10.4107 17.0192C9.78803 17.1187 9.24564 17.5606 8.16088 18.4446C6.50888 19.7907 5.68289 20.4638 5.10109 20.305C4.88369 20.2457 4.68799 20.125 4.53741 19.9573C4.13445 19.5087 4.36524 18.4684 4.82682 16.388L4.905 16.0357C5.15616 14.9037 5.28174 14.3377 5.15035 13.8046C5.12584 13.7051 5.09485 13.6074 5.05756 13.512C4.85768 13.0007 4.42884 12.6105 3.57114 11.8302L3.00567 11.3157C1.31136 9.77424 0.464199 9.00351 0.708289 8.27775C0.952378 7.55199 2.09311 7.44983 4.37458 7.24551L4.62659 7.22294C6.0206 7.09809 6.7176 7.03567 7.24856 6.6409C7.77953 6.24614 8.04006 5.59665 8.56111 4.29767L8.60405 4.19061Z" fill="#767680" fill-opacity="0.12"/>
</svg>
