<svg width="158" height="32" viewBox="0 0 158 32" fill="none" xmlns="http://www.w3.org/2000/svg">
<path d="M14.6801 3.54293C15.0168 2.50646 16.4832 2.50646 16.8199 3.54293L19.0335 10.3556C19.1841 10.8192 19.6161 11.133 20.1035 11.133H27.2667C28.3566 11.133 28.8097 12.5275 27.928 13.1681L22.1328 17.3786C21.7385 17.6651 21.5735 18.1729 21.7241 18.6364L23.9377 25.4491C24.2745 26.4856 23.0882 27.3475 22.2065 26.7069L16.4113 22.4964C16.017 22.2099 15.483 22.2099 15.0887 22.4964L9.29352 26.7069C8.41184 27.3475 7.22555 26.4856 7.56232 25.4491L9.7759 18.6364C9.92651 18.1729 9.76152 17.6651 9.36722 17.3786L3.57199 13.1681C2.69032 12.5275 3.14344 11.133 4.23325 11.133H11.3965C11.8839 11.133 12.3159 10.8192 12.4665 10.3556L14.6801 3.54293Z" fill="#FFDF5F"/>
<path d="M46.1801 3.54293C46.5168 2.50646 47.9832 2.50646 48.3199 3.54293L50.5335 10.3556C50.6841 10.8192 51.1161 11.133 51.6035 11.133H58.7668C59.8566 11.133 60.3097 12.5275 59.428 13.1681L53.6328 17.3786C53.2385 17.6651 53.0735 18.1729 53.2241 18.6364L55.4377 25.4491C55.7745 26.4856 54.5882 27.3475 53.7065 26.7069L47.9113 22.4964C47.517 22.2099 46.983 22.2099 46.5887 22.4964L40.7935 26.7069C39.9118 27.3475 38.7255 26.4856 39.0623 25.4491L41.2759 18.6364C41.4265 18.1729 41.2615 17.6651 40.8672 17.3786L35.072 13.1681C34.1903 12.5275 34.6434 11.133 35.7333 11.133H42.8965C43.3839 11.133 43.8159 10.8192 43.9665 10.3556L46.1801 3.54293Z" fill="#FFDF5F"/>
<path d="M77.6801 3.54293C78.0168 2.50646 79.4832 2.50646 79.8199 3.54293L82.0335 10.3556C82.1841 10.8192 82.6161 11.133 83.1035 11.133H90.2668C91.3566 11.133 91.8097 12.5275 90.928 13.1681L85.1328 17.3786C84.7385 17.6651 84.5735 18.1729 84.7241 18.6364L86.9377 25.4491C87.2745 26.4856 86.0882 27.3475 85.2065 26.7069L79.4113 22.4964C79.017 22.2099 78.483 22.2099 78.0887 22.4964L72.2935 26.7069C71.4118 27.3475 70.2255 26.4856 70.5623 25.4491L72.7759 18.6364C72.9265 18.1729 72.7615 17.6651 72.3672 17.3786L66.572 13.1681C65.6903 12.5275 66.1434 11.133 67.2333 11.133H74.3965C74.8839 11.133 75.3159 10.8192 75.4665 10.3556L77.6801 3.54293Z" fill="#FFDF5F"/>
<path d="M109.18 3.54293C109.517 2.50646 110.983 2.50646 111.32 3.54293L113.534 10.3556C113.684 10.8192 114.116 11.133 114.603 11.133H121.767C122.857 11.133 123.31 12.5275 122.428 13.1681L116.633 17.3786C116.238 17.6651 116.073 18.1729 116.224 18.6364L118.438 25.4491C118.774 26.4856 117.588 27.3475 116.706 26.7069L110.911 22.4964C110.517 22.2099 109.983 22.2099 109.589 22.4964L103.794 26.7069C102.912 27.3475 101.726 26.4856 102.062 25.4491L104.276 18.6364C104.427 18.1729 104.262 17.6651 103.867 17.3786L98.072 13.1681C97.1903 12.5275 97.6434 11.133 98.7333 11.133H105.897C106.384 11.133 106.816 10.8192 106.966 10.3556L109.18 3.54293Z" fill="#FFDF5F"/>
<path d="M140.68 3.54293C141.017 2.50646 142.483 2.50646 142.82 3.54293L145.034 10.3556C145.184 10.8192 145.616 11.133 146.103 11.133H153.267C154.357 11.133 154.81 12.5275 153.928 13.1681L148.133 17.3786C147.738 17.6651 147.573 18.1729 147.724 18.6364L149.938 25.4491C150.274 26.4856 149.088 27.3475 148.206 26.7069L142.411 22.4964C142.017 22.2099 141.483 22.2099 141.089 22.4964L135.294 26.7069C134.412 27.3475 133.226 26.4856 133.562 25.4491L135.776 18.6364C135.927 18.1729 135.762 17.6651 135.367 17.3786L129.572 13.1681C128.69 12.5275 129.143 11.133 130.233 11.133H137.397C137.884 11.133 138.316 10.8192 138.466 10.3556L140.68 3.54293Z" fill="#FFDF5F"/>
</svg>
