<svg width="30" height="30" viewBox="0 0 30 30" fill="none" xmlns="http://www.w3.org/2000/svg">
<g clip-path="url(#clip0_244_516)">
<rect width="30" height="30" rx="15" fill="url(#paint0_linear_244_516)"/>
<path d="M9.50009 20.9785C11.3334 22.3118 13.1668 23.3785 15.0001 23.3785C16.8334 23.3785 18.6668 22.3118 20.5001 20.9785C18.989 20.5185 18.2223 19.8318 18.2001 18.9185C18.2001 18.7557 18.2013 18.5245 18.2024 18.0904C18.2024 18.0214 18.2026 17.9508 18.2029 17.8786C18.2059 16.7146 18.2108 15.1786 18.2177 13.6186C19.6509 11.7609 19.1244 9.58298 18.6753 9.63728C18.1247 9.70428 13.3544 5.17748 12.4394 4.94538C11.5244 4.71328 9.20009 5.46258 8.80009 7.55008C8.40009 9.63758 8.23289 14.8994 9.75009 17.0001C10.1818 17.5979 10.8618 17.8317 11.7901 17.7016C11.7914 18.1385 11.794 18.3837 11.8001 18.8785C11.7882 19.8334 11.0216 20.519 9.50009 20.9785Z" fill="url(#paint1_linear_244_516)"/>
<path d="M11.7998 17.7C13.9998 17.45 15.3998 16.5 15.3998 16.5C15.3998 16.5 13.7998 18.5 11.7998 18.9V17.7Z" fill="#FC9F6A"/>
<path d="M18.9503 13.6501C19.6393 11.9931 22.4003 8.61838 20.0203 6.51838C19.2203 2.61838 14.8003 3.05008 11.8503 3.95008C9.86762 4.55498 8.37032 5.75008 8.05032 4.85008C6.05032 6.51838 7.05192 8.15008 8.37032 8.61838C9.56692 9.04338 11.5903 9.46838 15.0309 9.06838C15.6455 8.99688 15.5168 10.8792 15.8452 11.0827C16.3379 11.388 16.7203 9.46838 18.0711 10.0448C19.4219 10.6212 18.6203 13.2938 17.1703 13.2938C16.6703 13.2938 16.4203 14.6685 17.7703 15.3185C18.7503 15.8001 18.5026 14.7268 18.9503 13.6501Z" fill="url(#paint2_linear_244_516)"/>
<path d="M25.5 24.0311C26.452 25.9668 27 30.4311 27 30.4311H3C3 30.4311 3.5482 25.9663 4.5 24.0311C5.4518 22.0959 11.01 20.301 11.01 20.301C14.0813 21.5003 15.9608 21.5003 18.9871 20.3003C18.9871 20.3003 24.548 22.0954 25.5 24.0311Z" fill="url(#paint3_linear_244_516)"/>
<path d="M15.6998 21L16.1998 30.2H13.7998L14.2998 21C14.2998 21 14.7665 20.5 14.9998 20.5C15.2331 20.5 15.6998 21 15.6998 21Z" fill="url(#paint4_linear_244_516)"/>
<path d="M15.8137 22.8692L14.2412 21.9606L14.2998 21C14.6109 20.6667 14.8443 20.5 14.9998 20.5C15.1553 20.5 15.3887 20.6667 15.6998 21L15.8138 22.8692H15.8137Z" fill="#645050"/>
<path d="M15.0004 20.4993L14.0004 22.3001L10.9004 20.4001L11.8004 19.1001L15.0004 20.2822L18.2004 19.1001L19.1004 20.4001L16.0004 22.3001L15.0004 20.4993Z" fill="white"/>
</g>
<defs>
<linearGradient id="paint0_linear_244_516" x1="15" y1="0" x2="15" y2="30" gradientUnits="userSpaceOnUse">
<stop stop-color="#806A6A"/>
<stop offset="1" stop-color="#665654"/>
</linearGradient>
<linearGradient id="paint1_linear_244_516" x1="14.5122" y1="4.90479" x2="14.5122" y2="23.3785" gradientUnits="userSpaceOnUse">
<stop stop-color="#F7B186"/>
<stop offset="1" stop-color="#FFC299"/>
</linearGradient>
<linearGradient id="paint2_linear_244_516" x1="13.9444" y1="3.33887" x2="13.9444" y2="15.4369" gradientUnits="userSpaceOnUse">
<stop stop-color="#1D0024"/>
<stop offset="1" stop-color="#100014"/>
</linearGradient>
<linearGradient id="paint3_linear_244_516" x1="15" y1="20.3003" x2="15" y2="30.4311" gradientUnits="userSpaceOnUse">
<stop stop-color="#1D0024"/>
<stop offset="1" stop-color="#100014"/>
</linearGradient>
<linearGradient id="paint4_linear_244_516" x1="14.9998" y1="20.5" x2="14.9998" y2="30.2" gradientUnits="userSpaceOnUse">
<stop stop-color="#806A6A"/>
<stop offset="1" stop-color="#665654"/>
</linearGradient>
<clipPath id="clip0_244_516">
<rect width="30" height="30" rx="15" fill="white"/>
</clipPath>
</defs>
</svg>
