<svg width="50" height="50" viewBox="0 0 50 50" fill="none" xmlns="http://www.w3.org/2000/svg">
<g clip-path="url(#clip0_469_1168)">
<rect width="50" height="50" rx="25" fill="url(#paint0_linear_469_1168)"/>
<path d="M15.8331 34.9638C18.8887 37.186 21.9443 38.9638 24.9998 38.9638C28.0553 38.9638 31.111 37.186 34.1665 34.9638C31.6479 34.1971 30.3702 33.0527 30.3332 31.5305C30.3332 31.2591 30.3351 30.8738 30.337 30.1503C30.337 30.0354 30.3373 29.9178 30.3378 29.7973C30.3428 27.8573 30.351 25.2973 30.3625 22.6973C32.7511 19.6011 31.8737 15.9713 31.1252 16.0618C30.2075 16.1735 22.257 8.62881 20.732 8.24198C19.207 7.85514 15.3331 9.10398 14.6665 12.5831C13.9998 16.0623 13.7211 24.832 16.2498 28.3331C16.9694 29.3295 18.1027 29.7192 19.6498 29.5023C19.652 30.2305 19.6563 30.6391 19.6665 31.4638C19.6466 33.0553 18.369 34.198 15.8331 34.9638Z" fill="url(#paint1_linear_469_1168)"/>
<path d="M19.666 29.5C23.3327 29.0833 25.666 27.5 25.666 27.5C25.666 27.5 22.9993 30.8333 19.666 31.5V29.5Z" fill="#FC9F6A"/>
<path d="M31.5835 22.7498C32.7319 19.9881 37.3335 14.3636 33.3669 10.8636C32.0335 4.36364 24.6669 5.08314 19.7502 6.58314C16.4457 7.59131 13.9502 9.58314 13.4169 8.08314C10.0835 10.8636 11.7529 13.5831 13.9502 14.3636C15.9445 15.072 19.3169 15.7803 25.0512 15.1136C26.0755 14.9945 25.861 18.1316 26.4084 18.4708C27.2295 18.9796 27.8669 15.7803 30.1182 16.741C32.3695 17.7016 31.0335 22.156 28.6169 22.156C27.7835 22.156 27.3669 24.4471 29.6169 25.5305C31.2502 26.3331 30.8374 24.5443 31.5835 22.7498Z" fill="url(#paint2_linear_469_1168)"/>
<path d="M42.5 40.051C44.0867 43.2772 45 50.7177 45 50.7177H5C5 50.7177 5.91367 43.2763 7.5 40.051C9.08633 36.8257 18.35 33.8342 18.35 33.8342C23.4688 35.833 26.6013 35.833 31.6452 33.833C31.6452 33.833 40.9133 36.8248 42.5 40.051Z" fill="url(#paint3_linear_469_1168)"/>
<path d="M26.1667 34.9998L27 50.3332H23L23.8333 34.9998C23.8333 34.9998 24.6112 34.1665 25 34.1665C25.3888 34.1665 26.1667 34.9998 26.1667 34.9998Z" fill="url(#paint4_linear_469_1168)"/>
<path d="M26.3572 38.1152L23.7363 36.6008L23.834 34.9998C24.3526 34.4443 24.7414 34.1665 25.0007 34.1665C25.2599 34.1665 25.6488 34.4443 26.1673 34.9998L26.3573 38.1152H26.3572Z" fill="#645050"/>
<path d="M24.9993 34.165L23.3327 37.1663L18.166 33.9997L19.666 31.833L24.9993 33.8032L30.3327 31.833L31.8327 33.9997L26.666 37.1663L24.9993 34.165Z" fill="white"/>
</g>
<defs>
<linearGradient id="paint0_linear_469_1168" x1="25" y1="0" x2="25" y2="50" gradientUnits="userSpaceOnUse">
<stop stop-color="#806A6A"/>
<stop offset="1" stop-color="#665654"/>
</linearGradient>
<linearGradient id="paint1_linear_469_1168" x1="24.1868" y1="8.17432" x2="24.1868" y2="38.9638" gradientUnits="userSpaceOnUse">
<stop stop-color="#F7B186"/>
<stop offset="1" stop-color="#FFC299"/>
</linearGradient>
<linearGradient id="paint2_linear_469_1168" x1="23.2403" y1="5.56445" x2="23.2403" y2="25.7279" gradientUnits="userSpaceOnUse">
<stop stop-color="#1D0024"/>
<stop offset="1" stop-color="#100014"/>
</linearGradient>
<linearGradient id="paint3_linear_469_1168" x1="25" y1="33.833" x2="25" y2="50.7177" gradientUnits="userSpaceOnUse">
<stop stop-color="#1D0024"/>
<stop offset="1" stop-color="#100014"/>
</linearGradient>
<linearGradient id="paint4_linear_469_1168" x1="25" y1="34.1665" x2="25" y2="50.3332" gradientUnits="userSpaceOnUse">
<stop stop-color="#806A6A"/>
<stop offset="1" stop-color="#665654"/>
</linearGradient>
<clipPath id="clip0_469_1168">
<rect width="50" height="50" rx="25" fill="white"/>
</clipPath>
</defs>
</svg>
