<svg width="28" height="31" viewBox="0 0 28 31" fill="none" xmlns="http://www.w3.org/2000/svg">
<path d="M9.45333 17.5137L18.56 22.8203M18.5467 8.18033L9.45333 13.487M26 6.16699C26 8.37613 24.2091 10.167 22 10.167C19.7909 10.167 18 8.37613 18 6.16699C18 3.95785 19.7909 2.16699 22 2.16699C24.2091 2.16699 26 3.95785 26 6.16699ZM10 15.5003C10 17.7095 8.20914 19.5003 6 19.5003C3.79086 19.5003 2 17.7095 2 15.5003C2 13.2912 3.79086 11.5003 6 11.5003C8.20914 11.5003 10 13.2912 10 15.5003ZM26 24.8337C26 27.0428 24.2091 28.8337 22 28.8337C19.7909 28.8337 18 27.0428 18 24.8337C18 22.6245 19.7909 20.8337 22 20.8337C24.2091 20.8337 26 22.6245 26 24.8337Z" stroke="#1E1E1E" stroke-width="3" stroke-linecap="round" stroke-linejoin="round"/>
</svg>
