<svg width="30" height="28" viewBox="0 0 30 28" fill="none" xmlns="http://www.w3.org/2000/svg">
<path d="M17.3065 2.68002L19.6532 7.37335C19.9732 8.02669 20.8265 8.65335 21.5465 8.77335L25.7999 9.48002C28.5199 9.93335 29.1599 11.9067 27.1999 13.8534L23.8932 17.16C23.3332 17.72 23.0265 18.8 23.1999 19.5734L24.1465 23.6667C24.8932 26.9067 23.1732 28.16 20.3065 26.4667L16.3199 24.1067C15.5999 23.68 14.4132 23.68 13.6799 24.1067L9.69321 26.4667C6.83988 28.16 5.10655 26.8934 5.85321 23.6667L6.79988 19.5734C6.97321 18.8 6.66655 17.72 6.10655 17.16L2.79988 13.8534C0.853212 11.9067 1.47988 9.93335 4.19988 9.48002L8.45321 8.77335C9.15988 8.65335 10.0132 8.02669 10.3332 7.37335L12.6799 2.68002C13.9599 0.133353 16.0399 0.133353 17.3065 2.68002Z" fill="#FFDF5F" stroke="#292D32" stroke-width="1.5" stroke-linecap="round" stroke-linejoin="round"/>
</svg>
