<svg width="26" height="25" viewBox="0 0 26 25" fill="none" xmlns="http://www.w3.org/2000/svg">
<path d="M11.6801 1.54293C12.0168 0.506455 13.4832 0.506458 13.8199 1.54293L16.0335 8.35563C16.1841 8.81915 16.6161 9.13298 17.1035 9.13298H24.2667C25.3566 9.13298 25.8097 10.5275 24.928 11.1681L19.1328 15.3786C18.7385 15.6651 18.5735 16.1729 18.7241 16.6364L20.9377 23.4491C21.2745 24.4856 20.0882 25.3475 19.2065 24.7069L13.4113 20.4964C13.017 20.2099 12.483 20.2099 12.0887 20.4964L6.29352 24.7069C5.41184 25.3475 4.22555 24.4856 4.56232 23.4491L6.7759 16.6364C6.92651 16.1729 6.76152 15.6651 6.36722 15.3786L0.571993 11.1681C-0.309685 10.5275 0.143439 9.13298 1.23325 9.13298H8.39655C8.88392 9.13298 9.31587 8.81915 9.46648 8.35563L11.6801 1.54293Z" fill="#FFDF5F"/>
</svg>
