<svg width="25" height="24" viewBox="0 0 25 24" fill="none" xmlns="http://www.w3.org/2000/svg">
<path d="M1.83337 17.3335L7.94804 11.2188C8.44811 10.7189 9.12627 10.4381 9.83337 10.4381C10.5405 10.4381 11.2186 10.7189 11.7187 11.2188L17.8334 17.3335M15.1667 14.6668L17.2814 12.5522C17.7814 12.0522 18.4596 11.7714 19.1667 11.7714C19.8738 11.7714 20.552 12.0522 21.052 12.5522L23.1667 14.6668M15.1667 6.66683H15.18M4.50004 22.6668H20.5C21.2073 22.6668 21.8856 22.3859 22.3857 21.8858C22.8858 21.3857 23.1667 20.7074 23.1667 20.0002V4.00016C23.1667 3.29292 22.8858 2.61464 22.3857 2.11454C21.8856 1.61445 21.2073 1.3335 20.5 1.3335H4.50004C3.7928 1.3335 3.11452 1.61445 2.61442 2.11454C2.11433 2.61464 1.83337 3.29292 1.83337 4.00016V20.0002C1.83337 20.7074 2.11433 21.3857 2.61442 21.8858C3.11452 22.3859 3.7928 22.6668 4.50004 22.6668Z" stroke="#9CA1AD" stroke-width="2" stroke-linecap="round" stroke-linejoin="round"/>
</svg>
