<svg width="24" height="25" viewBox="0 0 24 25" fill="none" xmlns="http://www.w3.org/2000/svg">
<path fill-rule="evenodd" clip-rule="evenodd" d="M20.4 4.2C18.15 1.95 15.15 0.75 12 0.75C5.4 0.75 0 6.15 0 12.75C0 14.85 0.600009 16.95 1.65001 18.75L0 24.75L6.30002 23.1C8.10002 24 10.05 24.6 12 24.6C18.6 24.6 24 19.2 24 12.6C24 9.45 22.65 6.45 20.4 4.2ZM12 22.65C10.2 22.65 8.40001 22.2 6.90001 21.3L6.59999 21.15L2.84999 22.2L3.90001 18.6L3.59999 18.15C2.54999 16.5 2.09999 14.7 2.09999 12.9C2.09999 7.5 6.6 3 12 3C14.7 3 17.1 4.05 19.05 5.85C21 7.8 21.9 10.2 21.9 12.9C21.9 18.15 17.55 22.65 12 22.65ZM17.4 15.15C17.1 15 15.6 14.25 15.3 14.25C15 14.1 14.85 14.1 14.7 14.4C14.55 14.7 13.95 15.3 13.8 15.6C13.65 15.75 13.5 15.75 13.2 15.75C12.9 15.6 12 15.3 10.8 14.25C9.90002 13.5 9.30001 12.45 9.15001 12.15C9.00001 11.85 9.15002 11.7 9.30002 11.55C9.45002 11.4 9.6 11.25 9.75 11.1C9.9 10.95 9.90002 10.8 10.05 10.65C10.2 10.5 10.05 10.35 10.05 10.2C10.05 10.05 9.45001 8.55 9.15001 7.95C9.00001 7.5 8.70002 7.5 8.55002 7.5C8.40002 7.5 8.24998 7.5 7.94998 7.5C7.79998 7.5 7.49998 7.5 7.19998 7.8C6.89998 8.1 6.15001 8.85 6.15001 10.35C6.15001 11.85 7.19999 13.2 7.34999 13.5C7.49999 13.65 9.44998 16.8 12.45 18C15 19.05 15.45 18.75 16.05 18.75C16.65 18.75 17.85 18 18 17.4C18.3 16.65 18.3 16.05 18.15 16.05C18 15.3 17.7 15.3 17.4 15.15Z" fill="white"/>
</svg>
